<!-- icon666.com - MILLIONS vector ICONS FREE --><svg id="Layer_1" enable-background="new 0 0 64 64" viewBox="0 0 64 64" xmlns="http://www.w3.org/2000/svg"><g><g><path d="m57.28 8.87c-.05-.12-.12-.22-.21-.31l-8.27-8.27c-.09-.09-.2-.16-.31-.21-.12-.05-.25-.08-.38-.08h-38.58c-1.59 0-2.88 1.29-2.88 2.88v58.23c0 1.59 1.29 2.88 2.88 2.88h44.94c1.59 0 2.88-1.29 2.88-2.88v-51.87c0-.13-.02-.25-.07-.37zm-8.2-5.56 4.96 4.96h-4.96zm5.39 58.75h-44.94c-.52 0-.94-.42-.94-.94v-58.24c0-.52.42-.94.94-.94h37.61v7.3c0 .54.43.97.97.97h7.3v50.91c0 .52-.42.94-.94.94z"/><path d="m49.27 14.04h-34.54c-.54 0-.97.43-.97.97s.43.97.97.97h34.54c.54 0 .97-.43.97-.97s-.43-.97-.97-.97z"/><path d="m49.27 20.8h-34.54c-.54 0-.97.43-.97.97s.43.97.97.97h34.54c.54 0 .97-.43.97-.97s-.43-.97-.97-.97z"/><path d="m49.27 27.56h-34.54c-.54 0-.97.43-.97.97s.43.97.97.97h34.54c.54 0 .97-.43.97-.97s-.43-.97-.97-.97z"/><path d="m49.27 34.32h-34.54c-.54 0-.97.43-.97.97s.43.97.97.97h34.54c.54 0 .97-.43.97-.97s-.43-.97-.97-.97z"/><path d="m49.27 41.08h-34.54c-.54 0-.97.43-.97.97s.43.97.97.97h34.54c.54 0 .97-.43.97-.97 0-.53-.43-.97-.97-.97z"/><path d="m49.27 47.84h-34.54c-.54 0-.97.43-.97.97s.43.97.97.97h34.54c.54 0 .97-.43.97-.97s-.43-.97-.97-.97z"/><path d="m49.27 54.6h-34.54c-.54 0-.97.43-.97.97s.43.97.97.97h34.54c.54 0 .97-.43.97-.97s-.43-.97-.97-.97z"/></g></g></svg>